<?xml version="1.0" encoding="utf-8"?>
<!-- Generator: Adobe Illustrator 16.0.0, SVG Export Plug-In . SVG Version: 6.00 Build 0)  -->
<!DOCTYPE svg PUBLIC "-//W3C//DTD SVG 1.1//EN" "http://www.w3.org/Graphics/SVG/1.1/DTD/svg11.dtd">
<svg version="1.1" id="Capa_1" xmlns="http://www.w3.org/2000/svg" xmlns:xlink="http://www.w3.org/1999/xlink" x="0px" y="0px"
	 width="380px" height="380px" viewBox="0 0 380 380" enable-background="new 0 0 380 380" xml:space="preserve">
<polygon fill="#539DA3" points="358.25,187.25 195.917,187.25 195.917,14.583 193.917,14.583 193.917,187.25 28.917,187.25 
	28.917,189.25 193.917,189.25 193.917,361.916 195.917,361.916 195.917,189.25 358.25,189.25 "/>
<path fill="#E63E3A" d="M277.917,312.915V140.667c2.701-0.476,4.761-2.833,4.761-5.668c0-3.176-2.584-5.761-5.761-5.761
	c-2.835,0-5.192,2.06-5.668,4.761H100.585c-0.476-2.701-2.833-4.761-5.668-4.761c-3.177,0-5.761,2.584-5.761,5.761
	c0,2.834,2.06,5.192,4.761,5.668v172.248c-2.701,0.476-4.761,2.833-4.761,5.668c0,3.177,2.584,5.761,5.761,5.761
	c2.835,0,5.192-2.06,5.668-4.761h170.664c0.476,2.701,2.833,4.761,5.668,4.761c3.177,0,5.761-2.584,5.761-5.761
	C282.678,315.748,280.618,313.391,277.917,312.915z M273.309,134c0.441-1.586,1.884-2.761,3.608-2.761
	c2.073,0,3.761,1.687,3.761,3.761c0,1.725-1.175,3.167-2.761,3.608c-0.32,0.089-0.651,0.152-1,0.152s-0.68-0.063-1-0.152
	c-1.266-0.352-2.257-1.342-2.608-2.608c-0.09-0.32-0.152-0.651-0.152-1S273.219,134.32,273.309,134z M91.156,135
	c0-2.074,1.688-3.761,3.761-3.761c1.725,0,3.167,1.174,3.608,2.761c0.09,0.32,0.152,0.651,0.152,1s-0.063,0.68-0.152,1
	c-0.352,1.266-1.343,2.256-2.608,2.608c-0.32,0.089-0.651,0.152-1,0.152s-0.68-0.063-1-0.152
	C92.331,138.167,91.156,136.725,91.156,135z M98.525,319.583c-0.441,1.586-1.884,2.761-3.608,2.761
	c-2.073,0-3.761-1.688-3.761-3.761c0-1.725,1.175-3.167,2.761-3.608c0.32-0.089,0.651-0.152,1-0.152s0.68,0.063,1,0.152
	c1.266,0.352,2.257,1.343,2.608,2.608c0.089,0.32,0.152,0.651,0.152,1S98.614,319.263,98.525,319.583z M271.249,317.583H100.585
	c-0.418-2.375-2.293-4.25-4.668-4.668V140.667c2.375-0.418,4.25-2.293,4.668-4.668h170.664c0.418,2.375,2.293,4.25,4.668,4.668
	v172.248C273.542,313.333,271.667,315.208,271.249,317.583z M276.917,322.344c-1.725,0-3.167-1.175-3.608-2.761
	c-0.09-0.32-0.152-0.651-0.152-1s0.063-0.68,0.152-1c0.352-1.266,1.343-2.257,2.608-2.608c0.32-0.089,0.651-0.152,1-0.152
	s0.68,0.063,1,0.152c1.586,0.441,2.761,1.884,2.761,3.608C280.678,320.656,278.99,322.344,276.917,322.344z"/>

	<path fill="#539DA3" d="M205.786,33.416l1.383-6.645l-5.285-10.535h2.461l2.531,5.016c0.555,1.094,1.094,2.266,1.617,3.516
		c0.578-1.063,1.367-2.223,2.367-3.48l4.031-5.051h2.742l-8.203,10.711l-1.348,6.469H205.786z"/>

	<path fill="#539DA3" d="M20.988,216.75l8.203-8.684l-4.863-8.496h2.531l2.215,3.891c0.586,1.023,0.922,1.621,1.008,1.793
		c0.203,0.383,0.426,0.84,0.668,1.371c0.578-0.781,1.473-1.809,2.684-3.082l3.773-3.973h3l-8.309,8.871l4.711,8.309h-2.496
		l-2.789-5.027c-0.273-0.492-0.59-1.125-0.949-1.898c-0.422,0.57-0.938,1.176-1.547,1.816l-4.793,5.109H20.988z"/>
	<path fill="#539DA3" d="M41.484,202.043l0.504-2.402h2.414l-0.434,2.109c-0.266,1.258-0.678,2.178-1.236,2.76
		s-1.217,0.92-1.975,1.014l0.199-0.926c0.922-0.258,1.535-1.109,1.84-2.555H41.484z"/>

	<path fill="#E63E3A" d="M68.781,126.75l3.598-17.18h7.172c1.242,0,2.174,0.143,2.795,0.428s1.135,0.773,1.541,1.465
		s0.609,1.467,0.609,2.326c0,0.711-0.145,1.434-0.434,2.168s-0.654,1.34-1.096,1.816s-0.889,0.836-1.342,1.078
		s-0.938,0.422-1.453,0.539c-1.102,0.258-2.215,0.387-3.34,0.387h-4.301l-1.453,6.973H68.781z M72.941,117.832h3.785
		c1.469,0,2.547-0.158,3.234-0.475s1.238-0.799,1.652-1.447s0.621-1.336,0.621-2.063c0-0.563-0.109-1.021-0.328-1.377
		s-0.527-0.617-0.926-0.785s-1.164-0.252-2.297-0.252h-4.406L72.941,117.832z"/>
	<path fill="#E63E3A" d="M87.609,126.75l1.813-8.648c-0.781,0.615-1.88,1.107-3.297,1.477l0.266-1.281
		c0.703-0.281,1.397-0.648,2.082-1.102s1.199-0.849,1.543-1.188c0.208-0.208,0.406-0.461,0.594-0.758h0.82l-2.398,11.5H87.609z"/>

	<path fill="#E63E3A" d="M281.709,129.239l3.598-17.18h7.172c1.242,0,2.174,0.143,2.795,0.428s1.135,0.773,1.541,1.465
		s0.609,1.467,0.609,2.326c0,0.711-0.145,1.434-0.434,2.168s-0.654,1.34-1.096,1.816s-0.889,0.836-1.342,1.078
		s-0.938,0.422-1.453,0.539c-1.102,0.258-2.215,0.387-3.34,0.387h-4.301l-1.453,6.973H281.709z M285.869,120.321h3.785
		c1.469,0,2.547-0.158,3.234-0.475s1.238-0.799,1.652-1.447s0.621-1.336,0.621-2.063c0-0.563-0.109-1.021-0.328-1.377
		s-0.527-0.617-0.926-0.785s-1.164-0.252-2.297-0.252h-4.406L285.869,120.321z"/>

	<path fill="#E63E3A" d="M200.126,129.239l3.598-17.18h5.32c0.969,0,1.688,0.039,2.156,0.117c0.766,0.133,1.412,0.365,1.939,0.697
		s0.936,0.785,1.225,1.359s0.434,1.209,0.434,1.904c0,0.945-0.26,1.777-0.779,2.496s-1.314,1.266-2.385,1.641
		c0.93,0.305,1.625,0.764,2.086,1.377s0.691,1.33,0.691,2.15c0,0.945-0.271,1.852-0.814,2.719s-1.262,1.537-2.156,2.01
		s-1.893,0.709-2.994,0.709H200.126z M202.833,127.293h3.914c1.039,0,1.738-0.035,2.098-0.105c0.727-0.125,1.316-0.338,1.77-0.639
		s0.809-0.697,1.066-1.189s0.387-1.008,0.387-1.547c0-0.805-0.252-1.416-0.756-1.834s-1.463-0.627-2.877-0.627h-4.359
		L202.833,127.293z M204.485,119.395h3.48c1.664,0,2.861-0.266,3.592-0.797s1.096-1.305,1.096-2.32c0-0.484-0.113-0.902-0.34-1.254
		s-0.529-0.607-0.908-0.768s-1.092-0.24-2.139-0.24h-3.656L204.485,119.395z"/>

	<path fill="#E63E3A" d="M280.197,211.238l9.738-17.18h2.707l2.836,17.18h-2.227l-0.832-4.945h-6.949l-2.754,4.945H280.197z
		 M286.455,204.523h5.684l-0.668-4.313c-0.258-1.711-0.418-3.137-0.48-4.277c-0.391,0.984-0.961,2.152-1.711,3.504L286.455,204.523z
		"/>

	<path fill="#E63E3A" d="M281.709,336.738l3.598-17.18h7.172c1.242,0,2.174,0.143,2.795,0.428s1.135,0.773,1.541,1.465
		s0.609,1.467,0.609,2.326c0,0.711-0.145,1.434-0.434,2.168s-0.654,1.34-1.096,1.816s-0.889,0.836-1.342,1.078
		s-0.938,0.422-1.453,0.539c-1.102,0.258-2.215,0.387-3.34,0.387h-4.301l-1.453,6.973H281.709z M285.869,327.82h3.785
		c1.469,0,2.547-0.158,3.234-0.475s1.238-0.799,1.652-1.447s0.621-1.336,0.621-2.063c0-0.563-0.109-1.021-0.328-1.377
		s-0.527-0.617-0.926-0.785s-1.164-0.252-2.297-0.252h-4.406L285.869,327.82z"/>
	<path fill="#E63E3A" d="M297.561,333.738l1.375-0.172c0.104,0.803,0.335,1.377,0.691,1.723c0.356,0.348,0.824,0.52,1.402,0.52
		c0.698,0,1.301-0.25,1.809-0.75s0.762-1.072,0.762-1.719c0-0.563-0.19-1.027-0.57-1.395s-0.891-0.551-1.531-0.551
		c-0.073,0-0.224,0.012-0.453,0.031l0.242-1.18c0.136,0.021,0.266,0.031,0.391,0.031c0.808,0,1.429-0.195,1.863-0.59
		c0.435-0.393,0.652-0.875,0.652-1.449c0-0.525-0.179-0.969-0.535-1.328s-0.793-0.539-1.309-0.539c-0.505,0-0.96,0.184-1.363,0.551
		s-0.663,0.887-0.777,1.559l-1.391-0.281c0.229-0.941,0.669-1.672,1.32-2.188s1.422-0.773,2.313-0.773
		c0.938,0,1.696,0.285,2.277,0.852c0.581,0.568,0.871,1.266,0.871,2.094c0,0.605-0.157,1.133-0.473,1.582
		c-0.315,0.451-0.788,0.824-1.418,1.121c0.448,0.266,0.782,0.586,1.004,0.961s0.332,0.805,0.332,1.289
		c0,1.027-0.384,1.916-1.152,2.668c-0.769,0.754-1.687,1.129-2.754,1.129c-1.036,0-1.874-0.289-2.512-0.871
		C297.989,335.482,297.634,334.707,297.561,333.738z"/>

	<path fill="#E63E3A" d="M169.744,342.238l3.586-17.18h5.18c1.242,0,2.191,0.09,2.848,0.27c0.938,0.242,1.738,0.674,2.402,1.295
		s1.164,1.396,1.5,2.326s0.504,1.973,0.504,3.129c0,1.383-0.209,2.643-0.627,3.779s-0.965,2.137-1.641,3s-1.383,1.539-2.121,2.027
		s-1.611,0.85-2.619,1.084c-0.766,0.18-1.707,0.27-2.824,0.27H169.744z M172.451,340.293h2.719c1.227,0,2.316-0.113,3.27-0.34
		c0.594-0.141,1.102-0.348,1.523-0.621c0.555-0.352,1.059-0.816,1.512-1.395c0.594-0.766,1.068-1.639,1.424-2.619
		s0.533-2.096,0.533-3.346c0-1.391-0.242-2.459-0.727-3.205s-1.102-1.24-1.852-1.482c-0.555-0.18-1.418-0.27-2.59-0.27h-3.035
		L172.451,340.293z"/>
	<path fill="#E63E3A" d="M189.861,342.238l1.813-8.648c-0.781,0.615-1.88,1.107-3.297,1.477l0.266-1.281
		c0.703-0.281,1.397-0.648,2.082-1.102s1.199-0.848,1.543-1.188c0.208-0.207,0.406-0.461,0.594-0.758h0.82l-2.398,11.5H189.861z"/>

	<path fill="#E63E3A" d="M68.781,336.738l3.598-17.18h7.172c1.242,0,2.174,0.143,2.795,0.428s1.135,0.773,1.541,1.465
		s0.609,1.467,0.609,2.326c0,0.711-0.145,1.434-0.434,2.168s-0.654,1.34-1.096,1.816s-0.889,0.836-1.342,1.078
		s-0.938,0.422-1.453,0.539c-1.102,0.258-2.215,0.387-3.34,0.387h-4.301l-1.453,6.973H68.781z M72.941,327.82h3.785
		c1.469,0,2.547-0.158,3.234-0.475s1.238-0.799,1.652-1.447s0.621-1.336,0.621-2.063c0-0.563-0.109-1.021-0.328-1.377
		s-0.527-0.617-0.926-0.785s-1.164-0.252-2.297-0.252h-4.406L72.941,327.82z"/>
	<path fill="#E63E3A" d="M84.695,336.738c0.146-0.682,0.348-1.254,0.605-1.715s0.601-0.898,1.027-1.313s1.25-1.107,2.469-2.082
		c0.739-0.588,1.245-1.023,1.516-1.305c0.391-0.406,0.675-0.805,0.852-1.195c0.12-0.266,0.18-0.555,0.18-0.867
		c0-0.525-0.187-0.973-0.559-1.34s-0.829-0.551-1.371-0.551c-0.536,0-1.005,0.188-1.406,0.559c-0.401,0.373-0.688,0.971-0.859,1.793
		l-1.383-0.203c0.136-1.016,0.53-1.816,1.184-2.402s1.468-0.879,2.441-0.879c0.651,0,1.241,0.137,1.77,0.406
		c0.528,0.271,0.926,0.652,1.191,1.141c0.266,0.49,0.398,0.996,0.398,1.516c0,0.762-0.271,1.492-0.813,2.195
		c-0.333,0.438-1.313,1.301-2.938,2.586c-0.698,0.553-1.218,1.006-1.559,1.359c-0.341,0.355-0.598,0.688-0.77,1h5.125l-0.273,1.297
		H84.695z"/>

	<path fill="#E63E3A" d="M82.223,205.191l2.273,0.316c-0.719,1.984-1.766,3.484-3.141,4.5s-2.918,1.523-4.629,1.523
		c-2.086,0-3.74-0.637-4.963-1.91s-1.834-3.098-1.834-5.473c0-3.094,0.93-5.652,2.789-7.676c1.656-1.805,3.715-2.707,6.176-2.707
		c1.82,0,3.295,0.488,4.424,1.465s1.783,2.289,1.963,3.938l-2.145,0.199c-0.227-1.242-0.693-2.17-1.4-2.783s-1.619-0.92-2.736-0.92
		c-2.102,0-3.801,0.934-5.098,2.801c-1.125,1.609-1.688,3.52-1.688,5.73c0,1.766,0.434,3.113,1.301,4.043s1.996,1.395,3.387,1.395
		c1.188,0,2.262-0.387,3.223-1.16S81.785,206.605,82.223,205.191z"/>

	<path fill="#539DA3" d="M338.988,216.75l8.203-8.684l-4.863-8.496h2.531l2.215,3.891c0.586,1.023,0.922,1.621,1.008,1.793
		c0.203,0.383,0.426,0.84,0.668,1.371c0.578-0.781,1.473-1.809,2.684-3.082l3.773-3.973h3l-8.309,8.871l4.711,8.309h-2.496
		l-2.789-5.027c-0.273-0.492-0.59-1.125-0.949-1.898c-0.422,0.57-0.938,1.176-1.547,1.816l-4.793,5.109H338.988z"/>

	<path fill="#539DA3" d="M203.286,365.416l1.383-6.645l-5.285-10.535h2.461l2.531,5.016c0.555,1.094,1.094,2.266,1.617,3.516
		c0.578-1.063,1.367-2.223,2.367-3.48l4.031-5.051h2.742l-8.203,10.711l-1.348,6.469H203.286z"/>
	<path fill="#539DA3" d="M216.317,350.709l0.504-2.402h2.414l-0.434,2.109c-0.266,1.258-0.678,2.178-1.236,2.76
		s-1.217,0.92-1.975,1.014l0.199-0.926c0.922-0.258,1.535-1.109,1.84-2.555H216.317z"/>
	<path fill="#539DA3" d="M201.274,204.043c0-3.063,0.885-5.541,2.654-7.436s3.916-2.842,6.439-2.842
		c2.141,0,3.885,0.697,5.232,2.092s2.021,3.264,2.021,5.607c0,1.672-0.34,3.223-1.02,4.652c-0.508,1.07-1.148,1.994-1.922,2.771
		s-1.602,1.377-2.484,1.799c-1.172,0.563-2.414,0.844-3.727,0.844c-1.375,0-2.627-0.328-3.756-0.984s-1.984-1.572-2.566-2.748
		S201.274,205.371,201.274,204.043z M203.536,204.16c0,1.008,0.209,1.934,0.627,2.777s1.041,1.504,1.869,1.98
		s1.699,0.715,2.613,0.715c0.883,0,1.723-0.209,2.52-0.627s1.51-1,2.139-1.746s1.125-1.664,1.488-2.754s0.545-2.162,0.545-3.217
		c0-1.711-0.479-3.074-1.436-4.09s-2.139-1.523-3.545-1.523c-1.797,0-3.383,0.768-4.758,2.303S203.536,201.574,203.536,204.16z"/>
</svg>
