<?xml version="1.0" encoding="utf-8"?>
<!-- Generator: Adobe Illustrator 16.0.0, SVG Export Plug-In . SVG Version: 6.00 Build 0)  -->
<!DOCTYPE svg PUBLIC "-//W3C//DTD SVG 1.1//EN" "http://www.w3.org/Graphics/SVG/1.1/DTD/svg11.dtd">
<svg version="1.1" id="Capa_1" xmlns="http://www.w3.org/2000/svg" xmlns:xlink="http://www.w3.org/1999/xlink" x="0px" y="0px"
	 width="160px" height="40px" viewBox="0 0 160 40" enable-background="new 0 0 160 40" xml:space="preserve">
<path fill="#E2E2E2" d="M26.792,9.315c0.461,0,0.845,0.301,1.152,0.901c0.167,0.335,0.251,0.629,0.251,0.88
	c0,0.461-0.287,0.831-0.859,1.11l-14.081,6.747l14.081,6.748c0.572,0.279,0.859,0.649,0.859,1.11c0,0.251-0.084,0.545-0.251,0.88
	c-0.308,0.601-0.691,0.901-1.152,0.901c-0.238,0-0.496-0.07-0.775-0.21L9.736,20.4c-0.349-0.167-0.601-0.363-0.754-0.586
	c-0.154-0.223-0.23-0.51-0.23-0.859c0-0.349,0.077-0.635,0.23-0.859c0.154-0.223,0.405-0.419,0.754-0.587l16.281-7.983
	C26.296,9.386,26.555,9.315,26.792,9.315z"/>
<path fill="#E2E2E2" d="M55.824,6.623c0.202,0.217,0.304,0.583,0.304,1.1s-0.102,0.883-0.304,1.1
	c-0.203,0.217-0.542,0.325-1.017,0.325h-4.211v15.045c0,2.444-0.712,4.296-2.137,5.553c-1.425,1.257-3.507,1.886-6.245,1.886
	c-1.592,0-3.035-0.283-4.327-0.849c-1.292-0.565-2.386-1.337-3.279-2.315c-0.224-0.265-0.335-0.621-0.335-1.068v-5.973
	c0-0.489,0.119-0.838,0.356-1.047c0.237-0.21,0.642-0.314,1.215-0.314c0.572,0,0.978,0.104,1.215,0.314
	c0.237,0.209,0.356,0.559,0.356,1.047v5.532c1.173,1.048,2.78,1.571,4.819,1.571c1.83,0,3.157-0.404,3.981-1.215
	c0.824-0.81,1.236-2.061,1.236-3.751V9.148h-7.146c-0.475,0-0.814-0.108-1.016-0.325c-0.203-0.217-0.304-0.583-0.304-1.1
	s0.101-0.883,0.304-1.1c0.202-0.216,0.541-0.325,1.016-0.325h14.5C55.283,6.298,55.622,6.407,55.824,6.623z"/>
<path fill="#E2E2E2" d="M75.688,7.178c1.25,0.587,2.2,1.411,2.85,2.473s0.975,2.298,0.975,3.708c0,1.593-0.518,2.941-1.551,4.044
	c-1.034,1.104-2.451,1.858-4.254,2.263c0.782,0.308,1.432,0.804,1.949,1.488c0.433,0.573,0.803,1.143,1.11,1.709
	c0.307,0.565,0.649,1.26,1.026,2.084c0.392,0.853,0.691,1.475,0.901,1.865c0.545,1.006,1.174,1.509,1.886,1.509h0.587
	c0.475,0,0.813,0.108,1.017,0.324c0.202,0.217,0.304,0.584,0.304,1.101s-0.102,0.884-0.304,1.1
	c-0.203,0.217-0.542,0.325-1.017,0.325h-1.509c-0.838,0-1.547-0.22-2.127-0.66c-0.58-0.439-1.142-1.19-1.687-2.252
	c-0.308-0.615-0.685-1.426-1.132-2.431c-0.419-0.923-0.758-1.638-1.016-2.148c-0.259-0.51-0.569-1.016-0.933-1.52
	c-0.419-0.586-0.922-1.03-1.509-1.331c-0.587-0.3-1.292-0.45-2.116-0.45h-2.85v7.942h2.724c0.475,0,0.813,0.108,1.017,0.324
	c0.202,0.217,0.304,0.584,0.304,1.101s-0.102,0.884-0.304,1.1c-0.203,0.217-0.542,0.325-1.017,0.325h-8.423
	c-0.475,0-0.814-0.108-1.017-0.325c-0.203-0.216-0.304-0.583-0.304-1.1s0.101-0.884,0.304-1.101
	c0.203-0.216,0.542-0.324,1.017-0.324h2.556V9.148h-2.556c-0.475,0-0.814-0.108-1.017-0.325s-0.304-0.583-0.304-1.1
	s0.101-0.883,0.304-1.1c0.203-0.216,0.542-0.325,1.017-0.325h10.602C72.939,6.298,74.438,6.591,75.688,7.178z M66.291,17.529h4.253
	c3.772,0,5.658-1.39,5.658-4.17c0-1.341-0.476-2.378-1.425-3.111c-0.95-0.733-2.292-1.1-4.023-1.1h-4.463V17.529z"/>
<path fill="#E2E2E2" d="M107.496,6.623c0.203,0.217,0.305,0.583,0.305,1.1s-0.102,0.883-0.305,1.1
	c-0.202,0.217-0.541,0.325-1.016,0.325h-1.048l0.545,19.173h1.131c0.476,0,0.814,0.108,1.017,0.324
	c0.202,0.217,0.304,0.584,0.304,1.101s-0.102,0.884-0.304,1.1c-0.202,0.217-0.541,0.325-1.017,0.325h-6.579
	c-0.475,0-0.813-0.108-1.017-0.325c-0.202-0.216-0.304-0.583-0.304-1.1s0.102-0.884,0.304-1.101
	c0.203-0.216,0.542-0.324,1.017-0.324h2.326l-0.461-17.162l-4.275,11.944c-0.182,0.489-0.422,0.838-0.723,1.048
	s-0.702,0.314-1.205,0.314c-0.502,0-0.904-0.104-1.204-0.314c-0.301-0.21-0.542-0.559-0.724-1.048L89.969,11.16l-0.44,17.162h2.326
	c0.475,0,0.813,0.108,1.017,0.324c0.202,0.217,0.304,0.584,0.304,1.101s-0.102,0.884-0.304,1.1
	c-0.203,0.217-0.542,0.325-1.017,0.325h-6.58c-0.475,0-0.813-0.108-1.016-0.325c-0.203-0.216-0.304-0.583-0.304-1.1
	s0.101-0.884,0.304-1.101c0.202-0.216,0.541-0.324,1.016-0.324h1.132l0.524-19.173h-1.027c-0.475,0-0.813-0.108-1.016-0.325
	c-0.203-0.217-0.305-0.583-0.305-1.1s0.102-0.883,0.305-1.1c0.202-0.216,0.541-0.325,1.016-0.325h4.422
	c0.335,0,0.6,0.056,0.796,0.167c0.195,0.112,0.335,0.287,0.419,0.524l4.651,12.761l4.631-12.761
	c0.154-0.461,0.566-0.691,1.236-0.691h4.422C106.955,6.298,107.294,6.407,107.496,6.623z"/>
<path fill="#E2E2E2" d="M130.096,2.275c0.362,0.209,0.544,0.475,0.544,0.796c0,0.112-0.021,0.23-0.063,0.356l-14.081,34.428
	c-0.098,0.223-0.269,0.404-0.514,0.545c-0.244,0.139-0.527,0.209-0.849,0.209c-0.559,0-1.02-0.104-1.383-0.314
	c-0.363-0.209-0.545-0.475-0.545-0.796c0-0.112,0.021-0.23,0.063-0.356l14.081-34.428c0.098-0.223,0.269-0.405,0.513-0.544
	c0.245-0.14,0.527-0.21,0.849-0.21C129.271,1.96,129.731,2.065,130.096,2.275z"/>
<path fill="#E2E2E2" d="M151.019,18.095c0.153,0.224,0.23,0.51,0.23,0.859c0,0.35-0.077,0.636-0.23,0.859
	c-0.154,0.224-0.405,0.419-0.755,0.586l-16.281,7.984c-0.279,0.14-0.537,0.21-0.774,0.21c-0.462,0-0.846-0.301-1.153-0.901
	c-0.167-0.335-0.251-0.629-0.251-0.88c0-0.461,0.286-0.831,0.859-1.11l14.081-6.748l-14.081-6.747
	c-0.573-0.279-0.859-0.649-0.859-1.11c0-0.251,0.084-0.545,0.251-0.88c0.308-0.6,0.691-0.901,1.153-0.901
	c0.237,0,0.495,0.07,0.774,0.209l16.281,7.983C150.613,17.676,150.864,17.872,151.019,18.095z"/>
</svg>
